<svg xmlns="http://www.w3.org/2000/svg" width="127.31" height="35" viewBox="0 0 127.31 35"><rect class="svg__rect" x="0" y="0" width="59.54" height="35" fill="#DFDFDF"/><rect class="svg__rect" x="57.54" y="0" width="69.77" height="35" fill="#000000"/><path class="svg__text" d="M15.70 22L14.22 22L14.22 13.47L15.70 13.47L15.70 17.02L19.51 17.02L19.51 13.47L20.99 13.47L20.99 22L19.51 22L19.51 18.21L15.70 18.21L15.70 22ZM25.46 18.00L25.46 18.00L25.46 17.52Q25.46 16.28 25.90 15.32Q26.35 14.37 27.15 13.86Q27.96 13.35 29.00 13.35Q30.04 13.35 30.85 13.85Q31.65 14.35 32.09 15.29Q32.53 16.23 32.54 17.48L32.54 17.48L32.54 17.96Q32.54 19.21 32.11 20.16Q31.67 21.10 30.87 21.61Q30.06 22.12 29.01 22.12L29.01 22.12Q27.98 22.12 27.16 21.61Q26.35 21.10 25.91 20.17Q25.47 19.23 25.46 18.00ZM26.94 17.46L26.94 17.96Q26.94 19.36 27.49 20.13Q28.04 20.90 29.01 20.90L29.01 20.90Q30.00 20.90 30.53 20.15Q31.06 19.40 31.06 17.96L31.06 17.96L31.06 17.51Q31.06 16.09 30.52 15.34Q29.98 14.58 29.00 14.58L29.00 14.58Q28.04 14.58 27.50 15.33Q26.96 16.09 26.94 17.46L26.94 17.46ZM38.48 22L37.00 22L37.00 13.47L38.93 13.47L41.39 20.01L43.84 13.47L45.76 13.47L45.76 22L44.28 22L44.28 19.19L44.43 15.43L41.91 22L40.85 22L38.33 15.43L38.48 19.19L38.48 22Z" fill="#000000"/><path class="svg__text" d="M73.52 15.48L70.94 15.48L70.94 13.60L78.46 13.60L78.46 15.48L75.89 15.48L75.89 22L73.52 22L73.52 15.48ZM89.58 22L82.83 22L82.83 13.60L89.42 13.60L89.42 15.44L85.19 15.44L85.19 16.85L88.92 16.85L88.92 18.63L85.19 18.63L85.19 20.17L89.58 20.17L89.58 22ZM93.95 17.80L93.95 17.80Q93.95 16.54 94.55 15.54Q95.15 14.55 96.20 13.99Q97.25 13.43 98.57 13.43L98.57 13.43Q99.72 13.43 100.65 13.84Q101.57 14.25 102.18 15.02L102.18 15.02L100.67 16.39Q99.86 15.40 98.69 15.40L98.69 15.40Q98.01 15.40 97.47 15.70Q96.94 16 96.64 16.54Q96.35 17.09 96.35 17.80L96.35 17.80Q96.35 18.51 96.64 19.05Q96.94 19.60 97.47 19.90Q98.01 20.20 98.69 20.20L98.69 20.20Q99.86 20.20 100.67 19.22L100.67 19.22L102.18 20.58Q101.58 21.35 100.65 21.76Q99.72 22.17 98.57 22.17L98.57 22.17Q97.25 22.17 96.20 21.61Q95.15 21.05 94.55 20.05Q93.95 19.06 93.95 17.80ZM109.10 22L106.72 22L106.72 13.60L109.10 13.60L109.10 16.76L112.34 16.76L112.34 13.60L114.71 13.60L114.71 22L112.34 22L112.34 18.72L109.10 18.72L109.10 22Z" fill="#FFFFFF" x="70.53999999999999"/></svg>