<svg xmlns="http://www.w3.org/2000/svg" xmlns:xlink="http://www.w3.org/1999/xlink" width="1000" zoomAndPan="magnify" viewBox="0 0 750 749.999995" height="1000" preserveAspectRatio="xMidYMid meet" version="1.0"><defs><g/><clipPath id="id1"><path d="M 349 185.738281 L 370 185.738281 L 370 275 L 349 275 Z M 349 185.738281 " clip-rule="nonzero"/></clipPath><clipPath id="id2"><path d="M 380 185.738281 L 401 185.738281 L 401 275 L 380 275 Z M 380 185.738281 " clip-rule="nonzero"/></clipPath><clipPath id="id3"><path d="M 357 406 L 370 406 L 370 447.488281 L 357 447.488281 Z M 357 406 " clip-rule="nonzero"/></clipPath><clipPath id="id4"><path d="M 424 390 L 487 390 L 487 447.488281 L 424 447.488281 Z M 424 390 " clip-rule="nonzero"/></clipPath><clipPath id="id5"><path d="M 402 396 L 420 396 L 420 447.488281 L 402 447.488281 Z M 402 396 " clip-rule="nonzero"/></clipPath><clipPath id="id6"><path d="M 330 396 L 348 396 L 348 447.488281 L 330 447.488281 Z M 330 396 " clip-rule="nonzero"/></clipPath><clipPath id="id7"><path d="M 380 406 L 393 406 L 393 447.488281 L 380 447.488281 Z M 380 406 " clip-rule="nonzero"/></clipPath><clipPath id="id8"><path d="M 263 390 L 326 390 L 326 447.488281 L 263 447.488281 Z M 263 390 " clip-rule="nonzero"/></clipPath></defs><rect x="-75" width="900" fill="#ffffff" y="-74.999999" height="899.999994" fill-opacity="1"/><rect x="-75" width="900" fill="#ffffff" y="-74.999999" height="899.999994" fill-opacity="1"/><rect x="-75" width="900" fill="#ffffff" y="-74.999999" height="899.999994" fill-opacity="1"/><rect x="-75" width="900" fill="#ffffff" y="-74.999999" height="899.999994" fill-opacity="1"/><path fill="#000000" d="M 309.285156 323.636719 L 263.148438 323.636719 L 263.148438 335.449219 L 307.324219 335.449219 C 307.632812 331.402344 308.296875 327.453125 309.285156 323.636719 " fill-opacity="1" fill-rule="nonzero"/><g clip-path="url(#id1)"><path fill="#000000" d="M 357.960938 209.597656 L 357.960938 274.960938 C 361.777344 273.972656 365.722656 273.308594 369.773438 273.003906 L 369.773438 185.824219 L 349.675781 201.316406 L 357.960938 209.597656 " fill-opacity="1" fill-rule="nonzero"/></g><path fill="#000000" d="M 263.148438 297.453125 L 263.148438 313.179688 L 312.933594 313.179688 C 314.78125 309.015625 317.03125 305.070312 319.644531 301.394531 L 272.984375 301.394531 L 249.875 278.273438 L 225 297.453125 L 263.148438 297.453125 " fill-opacity="1" fill-rule="nonzero"/><path fill="#000000" d="M 277.316406 290.9375 L 325.261719 290.9375 L 325.261719 242.992188 L 312.355469 230.09375 L 258.222656 271.835938 L 277.316406 290.9375 " fill-opacity="1" fill-rule="nonzero"/><path fill="#000000" d="M 335.71875 238.664062 L 335.71875 285.320312 C 339.390625 282.707031 343.339844 280.457031 347.503906 278.609375 L 347.503906 213.925781 L 341.328125 207.753906 L 320.707031 223.65625 L 335.71875 238.664062 " fill-opacity="1" fill-rule="nonzero"/><path fill="#000000" d="M 424.738281 290.9375 L 472.683594 290.9375 L 491.777344 271.835938 L 437.644531 230.09375 L 424.738281 242.992188 L 424.738281 290.9375 " fill-opacity="1" fill-rule="nonzero"/><path fill="#000000" d="M 430.355469 301.394531 C 432.964844 305.066406 435.222656 309.015625 437.066406 313.179688 L 486.851562 313.179688 L 486.851562 297.453125 L 525 297.453125 L 500.128906 278.273438 L 477.015625 301.394531 L 430.355469 301.394531 " fill-opacity="1" fill-rule="nonzero"/><g clip-path="url(#id2)"><path fill="#000000" d="M 380.226562 273.003906 C 384.273438 273.308594 388.222656 273.972656 392.039062 274.960938 L 392.039062 209.597656 L 400.324219 201.316406 L 380.226562 185.824219 L 380.226562 273.003906 " fill-opacity="1" fill-rule="nonzero"/></g><path fill="#000000" d="M 402.496094 213.925781 L 402.496094 278.609375 C 406.660156 280.457031 410.609375 282.707031 414.28125 285.320312 L 414.28125 238.664062 L 429.296875 223.65625 L 408.671875 207.753906 L 402.496094 213.925781 " fill-opacity="1" fill-rule="nonzero"/><g clip-path="url(#id3)"><path fill="#000000" d="M 369.773438 408.347656 C 365.722656 408.042969 361.777344 407.378906 357.960938 406.390625 L 357.960938 447.410156 L 369.773438 447.410156 L 369.773438 408.347656 " fill-opacity="1" fill-rule="nonzero"/></g><path fill="#000000" d="M 437.070312 368.171875 C 435.21875 372.339844 432.964844 376.285156 430.355469 379.960938 L 477.015625 379.960938 L 486.851562 389.800781 L 486.851562 368.171875 L 437.070312 368.171875 " fill-opacity="1" fill-rule="nonzero"/><g clip-path="url(#id4)"><path fill="#000000" d="M 424.738281 390.414062 L 424.738281 438.359375 L 433.792969 447.410156 L 486.851562 447.410156 L 486.851562 404.589844 L 472.683594 390.414062 L 424.738281 390.414062 " fill-opacity="1" fill-rule="nonzero"/></g><g clip-path="url(#id5)"><path fill="#000000" d="M 414.28125 396.03125 C 410.609375 398.644531 406.660156 400.894531 402.496094 402.742188 L 402.496094 447.410156 L 419.003906 447.410156 L 414.28125 442.6875 L 414.28125 396.03125 " fill-opacity="1" fill-rule="nonzero"/></g><path fill="#000000" d="M 440.714844 323.636719 C 441.699219 327.453125 442.367188 331.402344 442.675781 335.449219 L 486.851562 335.449219 L 486.851562 323.636719 L 440.714844 323.636719 " fill-opacity="1" fill-rule="nonzero"/><path fill="#000000" d="M 440.714844 357.714844 L 486.851562 357.714844 L 486.851562 345.902344 L 442.675781 345.902344 C 442.367188 349.953125 441.699219 353.898438 440.714844 357.714844 " fill-opacity="1" fill-rule="nonzero"/><g clip-path="url(#id6)"><path fill="#000000" d="M 335.71875 396.03125 L 335.71875 442.6875 L 330.996094 447.410156 L 347.503906 447.410156 L 347.503906 402.742188 C 343.339844 400.894531 339.390625 398.644531 335.71875 396.03125 " fill-opacity="1" fill-rule="nonzero"/></g><path fill="#000000" d="M 319.644531 379.960938 C 317.03125 376.285156 314.78125 372.339844 312.933594 368.171875 L 263.148438 368.171875 L 263.148438 389.800781 L 272.984375 379.960938 L 319.644531 379.960938 " fill-opacity="1" fill-rule="nonzero"/><g clip-path="url(#id7)"><path fill="#000000" d="M 392.039062 406.390625 C 388.222656 407.378906 384.273438 408.042969 380.226562 408.347656 L 380.226562 447.410156 L 392.039062 447.410156 L 392.039062 406.390625 " fill-opacity="1" fill-rule="nonzero"/></g><g clip-path="url(#id8)"><path fill="#000000" d="M 325.261719 390.414062 L 277.316406 390.414062 L 263.148438 404.589844 L 263.148438 447.410156 L 316.207031 447.410156 L 325.261719 438.359375 L 325.261719 390.414062 " fill-opacity="1" fill-rule="nonzero"/></g><path fill="#000000" d="M 309.285156 357.714844 C 308.296875 353.898438 307.632812 349.953125 307.324219 345.902344 L 263.148438 345.902344 L 263.148438 357.714844 L 309.285156 357.714844 " fill-opacity="1" fill-rule="nonzero"/><path fill="#000000" d="M 406.582031 338.125 L 377.550781 338.125 L 377.550781 309.089844 L 406.582031 309.089844 Z M 406.582031 372.261719 L 377.550781 372.261719 L 377.550781 343.226562 L 406.582031 343.226562 Z M 372.449219 338.125 L 343.414062 338.125 L 343.414062 309.089844 L 372.449219 309.089844 Z M 372.449219 372.261719 L 343.414062 372.261719 L 343.414062 343.226562 L 372.449219 343.226562 Z M 375 284.019531 C 343.710938 284.019531 318.34375 309.386719 318.34375 340.675781 C 318.34375 371.964844 343.710938 397.332031 375 397.332031 C 406.289062 397.332031 431.65625 371.964844 431.65625 340.675781 C 431.65625 309.386719 406.289062 284.019531 375 284.019531 " fill-opacity="1" fill-rule="nonzero"/><g fill="#000000" fill-opacity="1"><g transform="translate(132.771925, 550.761785)"><g><path d="M 46.238281 -32.636719 L 13.597656 -32.636719 L 13.597656 -54.394531 L 2.71875 -54.394531 L 2.71875 0 L 13.597656 0 L 13.597656 -21.757812 L 46.238281 -21.757812 L 46.238281 0 L 57.117188 0 L 57.117188 -54.394531 L 46.238281 -54.394531 Z M 46.238281 -32.636719 "/></g></g></g><g fill="#000000" fill-opacity="1"><g transform="translate(197.705064, 550.761785)"><g><path d="M 46.238281 0 C 52.289062 0 57.117188 -4.964844 57.117188 -10.878906 L 57.117188 -43.515625 C 57.117188 -49.5 52.21875 -54.394531 46.238281 -54.394531 L 13.597656 -54.394531 C 7.617188 -54.394531 2.71875 -49.5 2.71875 -43.515625 L 2.71875 -10.878906 C 2.71875 -4.894531 7.617188 0 13.597656 0 Z M 13.597656 -43.515625 L 46.238281 -43.515625 L 46.238281 -10.878906 L 13.597656 -10.878906 Z M 13.597656 -43.515625 "/></g></g></g><g fill="#000000" fill-opacity="1"><g transform="translate(262.638202, 550.761785)"><g><path d="M 13.597656 -54.394531 C 7.617188 -54.394531 2.71875 -49.5 2.71875 -43.515625 L 2.71875 0 L 13.597656 0 L 13.597656 -43.515625 L 24.476562 -43.515625 L 24.476562 0 L 35.355469 0 L 35.355469 -43.515625 L 46.238281 -43.515625 L 46.238281 0 L 57.117188 0 L 57.117188 -43.515625 C 57.117188 -49.5 52.21875 -54.394531 46.238281 -54.394531 Z M 13.597656 -54.394531 "/></g></g></g><g fill="#000000" fill-opacity="1"><g transform="translate(327.571346, 550.761785)"><g/></g></g><g fill="#000000" fill-opacity="1"><g transform="translate(362.587908, 550.761785)"><g><path d="M 57.117188 -54.394531 L 2.71875 -54.394531 L 2.71875 -43.515625 L 24.476562 -43.515625 L 24.476562 0 L 35.355469 0 L 35.355469 -43.515625 L 57.117188 -43.515625 Z M 57.117188 -54.394531 "/></g></g></g><g fill="#000000" fill-opacity="1"><g transform="translate(427.521041, 550.761785)"><g><path d="M 57.117188 -54.394531 L 13.597656 -54.394531 C 7.617188 -54.394531 2.71875 -49.5 2.71875 -43.515625 L 2.71875 -10.878906 C 2.71875 -4.894531 7.617188 0 13.597656 0 L 57.117188 0 L 57.117188 -10.878906 L 13.597656 -10.878906 L 13.597656 -21.757812 L 57.117188 -21.757812 L 57.117188 -32.636719 L 13.597656 -32.636719 L 13.597656 -43.515625 L 57.117188 -43.515625 Z M 57.117188 -54.394531 "/></g></g></g><g fill="#000000" fill-opacity="1"><g transform="translate(492.454174, 550.761785)"><g><path d="M 57.117188 0 L 57.117188 -10.878906 L 13.597656 -10.878906 L 13.597656 -43.515625 L 57.117188 -43.515625 L 57.117188 -54.394531 L 13.597656 -54.394531 C 7.617188 -54.394531 2.71875 -49.5 2.71875 -43.515625 L 2.71875 -10.878906 C 2.71875 -4.894531 7.617188 0 13.597656 0 Z M 57.117188 0 "/></g></g></g><g fill="#000000" fill-opacity="1"><g transform="translate(557.387307, 550.761785)"><g><path d="M 46.238281 -32.636719 L 13.597656 -32.636719 L 13.597656 -54.394531 L 2.71875 -54.394531 L 2.71875 0 L 13.597656 0 L 13.597656 -21.757812 L 46.238281 -21.757812 L 46.238281 0 L 57.117188 0 L 57.117188 -54.394531 L 46.238281 -54.394531 Z M 46.238281 -32.636719 "/></g></g></g></svg>